<?xml version="1.0" encoding="iso-8859-1"?>
<!-- Generator: Adobe Illustrator 17.1.0, SVG Export Plug-In . SVG Version: 6.00 Build 0)  -->
<!DOCTYPE svg PUBLIC "-//W3C//DTD SVG 1.1//EN" "http://www.w3.org/Graphics/SVG/1.1/DTD/svg11.dtd">
<svg version="1.1" id="Layer_1" xmlns="http://www.w3.org/2000/svg" xmlns:xlink="http://www.w3.org/1999/xlink" x="0px" y="0px"
	 viewBox="0 0 32 32" style="enable-background:new 0 0 32 32;" xml:space="preserve">
<g>
	<path d="M23,28h-7v-3h0.574C18.463,25,20,23.463,20,21.574V11.426C20,9.537,18.463,8,16.574,8h-3.148C11.537,8,10,9.537,10,11.426
		v10.148C10,23.463,11.537,25,13.426,25H14v3H7c-0.552,0-1,0.447-1,1s0.448,1,1,1h16c0.552,0,1-0.447,1-1S23.552,28,23,28z
		 M12,21.574V20h1c0.552,0,1-0.448,1-1s-0.448-1-1-1h-1v-1h1c0.552,0,1-0.448,1-1s-0.448-1-1-1h-1v-1h1c0.552,0,1-0.448,1-1
		s-0.448-1-1-1h-1v-0.574C12,10.64,12.64,10,13.426,10h3.148C17.36,10,18,10.64,18,11.426V12h-1c-0.552,0-1,0.448-1,1s0.448,1,1,1h1
		v1h-1c-0.552,0-1,0.448-1,1s0.448,1,1,1h1v1h-1c-0.552,0-1,0.448-1,1s0.448,1,1,1h1v1.574C18,22.36,17.36,23,16.574,23h-3.148
		C12.64,23,12,22.36,12,21.574z"/>
	<path d="M17.75,7.125c1.792,0,3.25,1.458,3.25,3.25c0,0.552,0.448,1,1,1s1-0.448,1-1c0-2.895-2.355-5.25-5.25-5.25
		c-0.552,0-1,0.448-1,1S17.198,7.125,17.75,7.125z"/>
	<path d="M18.25,1.625c-0.552,0-1,0.448-1,1s0.448,1,1,1c3.446,0,6.25,2.804,6.25,6.25c0,0.552,0.448,1,1,1s1-0.448,1-1
		C26.5,5.326,22.799,1.625,18.25,1.625z"/>
</g>
</svg>
