<?xml version="1.0" ?><svg id="Layer_1" style="enable-background:new 0 0 128 128;" version="1.1" viewBox="0 0 128 128" xml:space="preserve" xmlns="http://www.w3.org/2000/svg" xmlns:xlink="http://www.w3.org/1999/xlink"><style type="text/css">
	.st0{fill:none;stroke:#444B54;stroke-width:6;stroke-linecap:round;stroke-linejoin:round;stroke-miterlimit:10;}
	.st1{fill:#FF5576;}
	.st2{fill:#FFFFFF;}
	.st3{fill:#FFF0B3;}
	.st4{fill:#F2B630;}
	.st5{fill:#88E3FF;}
	.st6{fill:none;stroke:#444B54;stroke-width:6;stroke-linecap:round;stroke-linejoin:round;}
	.st7{fill:none;stroke:#444B54;stroke-width:6;stroke-linecap:round;stroke-linejoin:round;stroke-dasharray:6.1978,16.5275;}
	.st8{fill:#C3DBEA;}
	.st9{fill:#444B54;}
	.st10{fill:#D4D3DD;}
	.st11{fill:#8888AA;}
	.st12{fill:#E6E6EF;}
	.st13{fill:#B5B4C1;}
	.st14{fill:#B2F9EB;}
	.st15{fill:#2DBDA4;}
	.st16{fill:#11967D;}
	.st17{fill:#41CEB3;}
	.st18{fill:#146B8E;}
	.st19{fill:#6E6E8E;}
	.st20{fill:#F2F2F4;}
	.st21{fill:none;stroke:#FF5576;stroke-width:6;stroke-linecap:round;stroke-linejoin:round;stroke-miterlimit:10;}
	.st22{fill:#228EC4;}
	.st23{opacity:0.5;fill:#F2F2F4;}
	.st24{opacity:0.1;fill:#FFFFFF;}
	.st25{fill:#DB3E64;}
	.st26{fill:none;stroke:#FFFFFF;stroke-width:6;stroke-linecap:round;stroke-linejoin:round;stroke-miterlimit:10;}
</style><polygon class="st2" points="92.5,114 40.5,114 33.5,41 99.5,41 "/><polygon class="st2" points="92.5,114 40.5,114 33.5,41 99.5,41 "/><g><path class="st8" d="M85.5,41l-5.2,54c-0.5,5.1-4.8,9-10,9H55c-2.9,0-5.3,2.5-5,5.5l0,0c0.2,2.6,2.4,4.5,5,4.5h37.5l7-73H85.5z"/></g><path class="st22" d="M37.5,57.5c-0.8,0-1.6,0.1-2.4,0.2l3.8,39.8c10.4-0.7,18.6-9.4,18.6-19.9C57.5,66.5,48.5,57.5,37.5,57.5z"/><rect class="st3" height="13" width="80" x="26.5" y="28"/><polygon class="st3" points="97.5,13 34.5,20 34.5,28 97.5,28 "/><path class="st4" d="M97.5,28V13l-15,1.7V21c0,3.9,3.1,7,7,7h0v6c0,3.9,3.1,7,7,7h10V28H97.5z"/><polyline class="st0" points="99.5,41 92.5,114 40.5,114 34.5,51.4 "/><line class="st0" x1="102.5" x2="30.5" y1="114" y2="114"/><polyline class="st0" points="87.5,28 26.5,28 26.5,41 106.5,41 106.5,28 97.5,28 "/><polyline class="st0" points="97.5,28 97.5,13 34.5,20 "/><circle class="st9" cx="117.5" cy="114" r="3"/></svg>