<svg width="441" height="397" viewBox="0 0 441 397" fill="none" xmlns="http://www.w3.org/2000/svg">
<rect x="102.148" y="21.0801" width="361.492" height="266.276" rx="75" transform="rotate(20.3854 102.148 21.0801)" fill="black"/>
<rect x="88.7021" y="0.929199" width="352.029" height="251.914" rx="75" transform="rotate(20.3854 88.7021 0.929199)" fill="#647BF4"/>
<path d="M215.007 165.933L186.207 232.867H168.607C168.252 230.022 167.096 222.822 165.141 211.267C163.185 199.533 161.852 191.444 161.141 187C159.718 175.978 158.741 168.956 158.207 165.933L142.474 243H117.674L145.941 121.933H171.007C171.185 123.711 171.63 126.556 172.341 130.467C173.052 134.2 173.763 138.467 174.474 143.267C175.363 147.889 176.252 152.956 177.141 158.467C178.03 163.978 178.83 169.311 179.541 174.467C180.252 179.444 180.874 184.067 181.407 188.333C181.941 192.6 182.385 195.978 182.741 198.467C183.452 196.156 184.696 192.867 186.474 188.6C188.43 184.333 190.474 179.622 192.607 174.467C194.741 169.311 197.052 164.067 199.541 158.733C202.03 153.222 204.341 148.067 206.474 143.267C208.785 138.467 210.741 134.2 212.341 130.467C214.118 126.556 215.452 123.711 216.341 121.933H241.407L235.541 243H209.674C209.852 241.044 210.03 238.111 210.207 234.2C210.385 230.289 210.652 225.933 211.007 221.133C211.541 216.156 211.896 211 212.074 205.667C212.43 200.333 212.785 195.178 213.141 190.2C213.496 185.222 213.852 180.6 214.207 176.333C214.563 171.889 214.83 168.422 215.007 165.933ZM320.605 164.067L278.205 224.067H312.605L310.471 243H248.338L250.471 227.267L292.338 167.533H261.138L263.805 148.6H323.005L320.605 164.067Z" fill="#F8F8F8"/>
</svg>
