<?xml version="1.0" ?><svg id="Layer_1" style="enable-background:new 0 0 405.591 405.591;" version="1.1" viewBox="0 0 405.591 405.591" xml:space="preserve" xmlns="http://www.w3.org/2000/svg" xmlns:xlink="http://www.w3.org/1999/xlink"><g id="Chicken_x5F_in_x5F_coconut_x5F_soup"><rect height="362.047" id="XMLID_200_" style="fill:#49BF7C;" transform="matrix(0.9063 0.4226 -0.4226 0.9063 87.435 -50.7743)" width="36.66" x="139.902" y="-9.214"/><rect height="362.047" id="XMLID_270_" style="fill:#378F5D;" transform="matrix(0.9063 0.4226 -0.4226 0.9063 97.0955 -63.3642)" width="36.66" x="173.127" y="6.279"/><rect height="362.047" id="XMLID_272_" style="fill:#49BF7C;" transform="matrix(0.9063 0.4226 -0.4226 0.9063 106.7561 -75.9541)" width="36.66" x="206.352" y="21.772"/><rect height="362.047" id="XMLID_271_" style="fill:#378F5D;" transform="matrix(0.9063 0.4226 -0.4226 0.9063 116.4166 -88.5439)" width="36.66" x="239.576" y="37.265"/><rect height="362.047" id="XMLID_276_" style="fill:#49BF7C;" transform="matrix(0.9063 0.4226 -0.4226 0.9063 126.0772 -101.1338)" width="36.66" x="272.801" y="52.758"/><path d="M163.04,313.999c-78.131,0-141.696-63.565-141.696-141.696   S84.909,30.607,163.04,30.607s141.696,63.565,141.696,141.696S241.171,313.999,163.04,313.999z" id="XMLID_396_" style="fill:#895654;"/><circle cx="163.04" cy="172.303" id="XMLID_315_" r="128.868" style="fill:#EBE0C1;"/><path d="M200.333,104.676c-12.695,3.936-24.669,9.911-35.447,17.688   c-8.901,6.334-21.788,6.786-29.926-0.756h0c-8.12-7.48-6.059-22.927,6.373-31.886c14.316-10.33,30.219-18.265,47.08-23.493   c14.634-4.546,28.215,3.095,29.31,14.081l0,0C218.857,91.346,210.746,101.372,200.333,104.676z" id="XMLID_226_" style="fill:#F4F4F4;"/><path d="M88.91,175.287c8.337,10.351,18.303,19.281,29.505,26.435   c9.168,5.941,14.337,17.754,10.325,28.099l0,0c-3.962,10.305-19.081,14.08-31.991,5.825c-14.878-9.502-28.115-21.362-39.188-35.111   c-9.618-11.929-7.52-27.37,2.289-32.436l0,0C69.693,162.979,82.002,166.824,88.91,175.287z" id="XMLID_625_" style="fill:#F4F4F4;"/><path d="M183.084,235.756c11.634-6.427,22.148-14.704,31.127-24.504   c7.433-8.006,19.961-11.061,29.459-5.324c0,0,0,0,0,0c9.468,5.68,10.579,21.223,0.221,32.516   c-11.926,13.016-25.891,24.01-41.343,32.546c-13.409,7.417-28.257,2.687-31.555-7.849l0,0   C167.646,252.563,173.556,241.102,183.084,235.756z" id="XMLID_682_" style="fill:#F4F4F4;"/><circle cx="253.962" cy="183.843" id="XMLID_624_" r="19.128" style="fill:#EF5B62;"/><circle cx="86.962" cy="130.843" id="XMLID_627_" r="19.128" style="fill:#EF5B62;"/><path d="M144.753,266.518h-8.03c-3.65,0-6.609-2.959-6.609-6.609v-8.03   c0-3.65,2.959-6.609,6.609-6.609h8.03c3.65,0,6.609,2.959,6.609,6.609v8.03C151.362,263.559,148.403,266.518,144.753,266.518z" id="XMLID_679_" style="fill:#EBA68F;"/><path d="M117.684,99.337h-8.03c-3.65,0-6.609-2.959-6.609-6.609v-8.03   c0-3.65,2.959-6.609,6.609-6.609h8.03c3.65,0,6.609,2.959,6.609,6.609v8.03C124.293,96.378,121.334,99.337,117.684,99.337z" id="XMLID_22_" style="fill:#EBA68F;"/><path d="M232.468,127.19h-8.03c-3.65,0-6.609-2.959-6.609-6.609v-8.03   c0-3.65,2.959-6.609,6.609-6.609h8.03c3.65,0,6.609,2.959,6.609,6.609v8.03C239.076,124.231,236.118,127.19,232.468,127.19z" id="XMLID_681_" style="fill:#EBA68F;"/><path d="M105.291,249.517c-5.66,0-11.178-1.721-15.92-5.024   c-6.126-4.269-10.223-10.667-11.536-18.017c-0.583-3.262,1.589-6.379,4.851-6.962c3.266-0.58,6.38,1.589,6.962,4.851   c0.75,4.194,3.088,7.846,6.584,10.282c3.496,2.436,7.732,3.36,11.927,2.614c3.261-0.576,6.379,1.588,6.962,4.851   c0.583,3.262-1.588,6.379-4.851,6.962C108.609,249.371,106.943,249.517,105.291,249.517z" id="XMLID_1229_" style="fill:#EF5B62;"/><path d="M188.2,118.228c-2.205,0-4.326-1.22-5.376-3.327   c-1.899-3.814-5.17-6.66-9.21-8.014c-4.041-1.354-8.365-1.053-12.181,0.846c-2.97,1.478-6.568,0.269-8.046-2.696   c-1.477-2.966-0.27-6.568,2.696-8.045c6.684-3.328,14.264-3.855,21.343-1.483c7.079,2.372,12.812,7.359,16.14,14.042   c1.477,2.966,0.27,6.568-2.696,8.046C190.011,118.025,189.099,118.228,188.2,118.228z" id="XMLID_1228_" style="fill:#EF5B62;"/><path d="M212.654,244.049c-2.189,0-4.299-1.202-5.356-3.288   c-1.498-2.956-0.316-6.566,2.639-8.064c7.846-3.977,10.993-13.596,7.017-21.441c-1.498-2.956-0.316-6.566,2.639-8.064   c2.955-1.497,6.566-0.316,8.064,2.639c3.376,6.66,3.956,14.235,1.634,21.332c-2.321,7.096-7.269,12.863-13.928,16.238   C214.493,243.84,213.566,244.049,212.654,244.049z" id="XMLID_1227_" style="fill:#EF5B62;"/><path d="M148.864,204.569l-1.855-2.357c23.562-18.537,13.481-38.655,13.041-39.502   l2.657-1.393C162.827,161.546,174.44,184.448,148.864,204.569z" id="XMLID_774_" style="fill:#378F5D;"/><path d="M203.387,200.962c-16.469,5.571-33.746,2.731-47.189-6.194   c5.264-15.254,17.268-28,33.737-33.571c16.469-5.571,33.746-2.731,47.189,6.194C231.861,182.645,219.856,195.39,203.387,200.962z" id="XMLID_449_" style="fill:#378F5D;"/><path d="M132.226,146.576c6.634,12.121,18.266,19.758,30.933,21.773   c5.131-11.754,4.969-25.669-1.664-37.79c-6.634-12.121-18.266-19.758-30.933-21.773   C125.431,120.54,125.592,134.454,132.226,146.576z" id="XMLID_224_" style="fill:#378F5D;"/></g><g/><g/><g/><g/><g/><g/><g/><g/><g/><g/><g/><g/><g/><g/><g/></svg>